<svg xmlns="http://www.w3.org/2000/svg" viewBox="0 0 64 64" role="img" aria-label="Колледжи Башкортостана">
  <defs>
    <linearGradient id="bg" x1="12" y1="8" x2="52" y2="58" gradientUnits="userSpaceOnUse">
      <stop stop-color="#0054A6"/>
      <stop offset="1" stop-color="#007A5E"/>
    </linearGradient>
  </defs>
  <rect width="64" height="64" rx="14" fill="url(#bg)"/>
  <path fill="#fff" d="M14 21.5c0-2 1.6-3.5 3.5-3.5H30c1.1 0 2.1.4 2.9 1.2.8-.8 1.8-1.2 2.9-1.2h10.7c1.9 0 3.5 1.5 3.5 3.5v24.2c0 1-.8 1.7-1.8 1.5l-12.1-2.3c-.8-.2-1.7.1-2.3.7l-.9.9-.9-.9c-.6-.6-1.5-.9-2.3-.7l-13.9 2.6c-.9.2-1.8-.5-1.8-1.5V21.5Z" opacity=".95"/>
  <path fill="#0054A6" d="M19 23h10.1c.9 0 1.7.8 1.7 1.7v15.6c0 .8-.7 1.4-1.5 1.2L19 39.7V23Zm26 0H35.9c-.9 0-1.7.8-1.7 1.7v15.6c0 .8.7 1.4 1.5 1.2L45 39.7V23Z"/>
  <path fill="#fff" d="M20.7 31.3h3.6c1.8 0 3 .9 3 2.3 0 .8-.4 1.4-1.2 1.8.9.3 1.5 1 1.5 2 0 1.6-1.3 2.6-3.4 2.6h-3.5v-8.7Zm3.4 3.5c.8 0 1.2-.3 1.2-.9s-.4-.9-1.2-.9h-1.4v1.8h1.4Zm.1 3.4c.9 0 1.4-.4 1.4-1s-.5-1-1.4-1h-1.5v2h1.5Zm11.8-6.9h3.5c2 0 3.2.9 3.2 2.5s-1.2 2.6-3.2 2.6H38v3.6h-2v-8.7Zm3.3 3.4c.9 0 1.4-.3 1.4-.9s-.5-.9-1.4-.9H38v1.8h1.3Z"/>
  <path fill="#D6EAF8" d="M22 25.5h6v1.8h-6v-1.8Zm14 0h6v1.8h-6v-1.8Z"/>
</svg>
